<?xml version="1.0" standalone="no"?>
<!DOCTYPE svg PUBLIC "-//W3C//DTD SVG 20010904//EN"
 "http://www.w3.org/TR/2001/REC-SVG-20010904/DTD/svg10.dtd">
<svg version="1.0" xmlns="http://www.w3.org/2000/svg"
 width="317.000000pt" height="338.000000pt" viewBox="0 0 317.000000 338.000000"
 preserveAspectRatio="xMidYMid meet">

<g transform="translate(0.000000,338.000000) scale(0.100000,-0.100000)"
fill="#000000" stroke="none">
<path d="M1520 3243 c-97 -12 -238 -47 -326 -79 -55 -20 -116 -43 -137 -50
-78 -29 -234 -121 -332 -197 -72 -55 -212 -190 -251 -243 -16 -22 -31 -41 -35
-44 -3 -3 -20 -27 -39 -55 -19 -27 -36 -52 -39 -55 -12 -10 -51 -92 -51 -106
0 -8 -4 -14 -8 -14 -5 0 -14 -16 -22 -35 -8 -19 -17 -35 -22 -35 -4 0 -8 -9
-8 -20 0 -11 -4 -20 -10 -20 -5 0 -10 -9 -10 -19 0 -11 -4 -23 -10 -26 -5 -3
-10 -17 -10 -30 0 -13 -4 -27 -10 -30 -5 -3 -10 -21 -10 -40 0 -19 -4 -37 -10
-40 -5 -3 -10 -17 -10 -30 0 -13 -4 -26 -9 -29 -4 -3 -11 -31 -16 -63 -4 -32
-12 -87 -17 -123 -19 -118 -9 -461 13 -484 5 -6 9 -27 9 -47 0 -21 4 -41 10
-44 5 -3 10 -19 10 -35 0 -16 4 -32 10 -35 5 -3 10 -17 10 -30 0 -13 5 -27 10
-30 6 -3 10 -17 10 -31 0 -13 4 -32 9 -42 5 -9 19 -39 32 -67 13 -27 26 -52
29 -55 3 -3 23 -40 44 -83 21 -43 43 -83 50 -90 6 -7 23 -28 36 -47 13 -19 29
-40 35 -46 5 -6 21 -26 35 -44 38 -51 174 -184 241 -235 72 -56 243 -158 324
-193 125 -54 311 -106 439 -122 145 -19 392 -7 531 24 270 60 497 174 712 356
72 61 113 123 113 170 0 39 -48 110 -86 126 -49 21 -62 18 -160 -29 -183 -89
-294 -122 -464 -137 -260 -22 -552 45 -747 174 -125 82 -174 156 -180 271 -3
56 0 78 16 110 12 23 20 31 18 19 -2 -21 19 -47 127 -155 60 -59 88 -72 48
-21 -12 15 -49 72 -83 126 -71 113 -71 114 10 163 73 44 114 49 175 22 43 -19
60 -21 132 -15 85 7 124 -3 124 -31 0 -7 5 -13 10 -13 6 0 10 -6 10 -14 0 -7
13 -19 29 -26 52 -21 69 -49 74 -120 7 -82 17 -130 28 -130 5 0 9 -9 9 -20 0
-11 5 -20 10 -20 6 0 10 -6 10 -14 0 -7 16 -21 35 -30 37 -18 83 -16 169 6 34
8 42 7 53 -7 20 -28 0 -49 -82 -85 -117 -51 -99 -57 90 -28 190 29 367 120
519 267 98 95 154 173 210 292 98 208 119 420 66 672 -5 26 -14 57 -20 68 -11
20 -12 20 -28 2 -29 -32 -70 -53 -103 -53 -38 0 -66 28 -103 102 -32 63 -100
153 -138 181 -36 27 -148 37 -148 14 0 -14 39 -27 84 -27 19 0 56 -30 56 -46
0 -10 -25 -30 -71 -57 -45 -26 -79 -35 -79 -19 0 4 -10 20 -23 36 -18 22 -28
27 -45 22 -31 -10 -31 -71 0 -95 13 -11 18 -22 13 -31 -12 -20 -203 -106 -275
-123 -89 -22 -183 -36 -255 -37 -111 -3 -115 -2 -115 21 0 24 41 143 66 190
31 61 149 89 209 49 47 -31 82 -27 99 14 18 44 29 49 88 47 58 -2 73 18 40 52
-20 20 -25 20 -82 9 -34 -7 -81 -10 -105 -7 -39 6 -45 5 -61 -20 -16 -25 -21
-26 -69 -20 -50 6 -52 5 -103 -41 -29 -26 -52 -53 -52 -59 0 -12 -61 -65 -74
-65 -12 0 -5 66 9 84 28 37 19 47 -37 40 -46 -5 -56 -3 -72 15 -21 23 -55 28
-73 10 -16 -16 -32 -3 -26 22 7 26 42 40 66 27 15 -7 23 -5 38 11 17 18 30 20
107 18 77 -2 93 1 137 24 56 28 65 51 36 88 -22 29 -51 22 -51 -12 0 -35 -40
-54 -80 -37 -61 25 -76 89 -34 148 14 20 24 22 100 22 83 0 84 0 84 25 0 56
51 141 98 163 24 11 18 11 -43 6 -118 -11 -251 -51 -372 -112 l-113 -57 0
-118 c0 -64 -4 -125 -9 -135 -5 -9 -15 -30 -22 -47 -22 -47 -98 -115 -129
-115 -39 0 -50 18 -50 81 0 32 -5 70 -10 84 -9 23 -13 25 -26 14 -11 -9 -14
-22 -9 -43 28 -139 25 -186 -11 -186 -16 0 -192 147 -211 176 -12 18 -7 29 46
110 146 222 385 397 640 469 194 55 414 59 611 11 58 -14 114 -23 125 -20 68
20 86 97 38 155 -46 55 -300 156 -478 190 -98 19 -394 33 -475 22z m-8 -1030
c19 -17 25 -63 8 -63 -5 0 -10 -6 -10 -14 0 -14 -37 -29 -52 -20 -10 6 1 84
15 102 12 16 17 15 39 -5z m1158 -184 c0 -5 6 -9 14 -9 22 0 25 -36 5 -69 -10
-17 -23 -31 -29 -31 -5 0 -10 -8 -10 -18 0 -10 -6 -24 -12 -31 -10 -11 -10
-14 0 -18 6 -3 12 -13 12 -24 0 -10 5 -19 10 -19 6 0 10 -7 10 -15 0 -8 4 -23
9 -33 5 -9 12 -25 15 -35 3 -10 13 -17 23 -15 15 3 18 -6 21 -59 4 -75 -9
-127 -31 -131 -13 -3 -17 4 -17 26 0 16 -3 32 -7 35 -12 12 -33 -45 -33 -89 0
-24 -4 -44 -10 -44 -5 0 -10 -13 -10 -29 0 -27 -33 -103 -55 -127 -17 -18 -59
-24 -96 -14 -45 13 -76 61 -90 136 -19 106 -19 107 -79 127 -30 11 -56 20 -58
22 -1 1 36 42 84 91 92 96 184 225 229 320 38 82 41 84 76 72 16 -5 29 -14 29
-19z m-670 -624 c-14 -17 -40 -20 -40 -5 0 11 42 31 49 24 2 -2 -2 -10 -9 -19z"/>
<path d="M2270 2510 c0 -5 7 -10 15 -10 8 0 33 -20 57 -45 49 -51 58 -55 58
-21 0 38 -10 56 -41 71 -32 17 -89 20 -89 5z"/>
<path d="M2176 2443 c-21 -5 -46 -27 -46 -39 0 -8 107 3 123 13 5 3 -1 12 -14
19 -25 14 -32 15 -63 7z"/>
</g>
</svg>
