<?xml version="1.0" standalone="no"?>
<!DOCTYPE svg PUBLIC "-//W3C//DTD SVG 20010904//EN"
 "http://www.w3.org/TR/2001/REC-SVG-20010904/DTD/svg10.dtd">
<svg version="1.0" xmlns="http://www.w3.org/2000/svg"
 width="1280.000000pt" height="1280.000000pt" viewBox="0 0 1280.000000 1280.000000"
 preserveAspectRatio="xMidYMid meet">

<g transform="translate(0.000000,1280.000000) scale(0.100000,-0.100000)"
fill="#000000" stroke="none">
<path d="M0 6400 l0 -6400 6400 0 6400 0 0 6400 0 6400 -6400 0 -6400 0 0
-6400z m6870 5165 c320 -31 595 -79 861 -149 295 -78 714 -238 1002 -382 94
-48 373 -209 512 -297 134 -85 426 -303 515 -384 36 -33 97 -87 135 -120 190
-165 537 -552 708 -791 530 -738 883 -1672 956 -2527 56 -649 26 -1122 -108
-1715 -69 -300 -231 -754 -383 -1070 -228 -475 -530 -906 -921 -1320 -332
-351 -672 -619 -1125 -889 -335 -200 -798 -396 -1227 -521 -480 -139 -1113
-210 -1630 -181 -618 35 -1148 148 -1660 356 -49 20 -122 50 -161 65 -40 16
-127 57 -195 91 -68 34 -146 73 -173 86 -163 81 -531 319 -751 485 -217 165
-587 515 -740 701 -41 51 -107 130 -146 177 -152 183 -328 447 -466 697 -258
468 -429 919 -542 1428 -88 394 -115 691 -108 1195 4 291 8 382 26 505 32 224
46 297 55 288 4 -4 5 4 1 20 -4 15 -3 27 2 27 4 0 9 17 9 39 2 60 99 459 134
546 4 11 13 34 20 50 7 17 14 40 16 52 4 19 23 77 74 218 31 87 70 163 86 169
8 3 14 14 13 23 0 10 0 20 1 23 1 3 3 14 5 25 6 29 39 95 48 95 5 0 6 4 3 9
-7 10 136 294 210 417 16 27 38 66 49 88 11 21 26 40 33 43 6 3 12 9 12 14 0
12 95 160 165 258 33 46 67 93 75 105 69 101 306 379 427 501 573 578 1150
954 1906 1244 477 183 962 284 1557 325 119 8 564 -3 720 -19z m-5806 -9984
c3 -5 -2 -8 -12 -7 -11 0 -18 -7 -20 -21 -3 -18 2 -23 19 -23 18 0 19 2 9 15
-10 12 -9 15 5 15 23 0 15 -34 -9 -38 -27 -6 -48 25 -35 49 10 20 34 25 43 10z
m71 -38 c-9 -37 -18 -20 -9 19 4 18 9 27 11 20 3 -7 2 -24 -2 -39z m-171 2
c20 -31 20 -36 0 -28 -9 3 -20 0 -25 -8 -6 -10 -9 -2 -9 24 0 43 11 47 34 12z
m251 -2 c7 -28 7 -28 16 -5 11 29 17 28 11 -3 -6 -34 -22 -42 -29 -16 -6 25
-23 28 -23 4 0 -9 -2 -14 -5 -11 -8 8 5 58 15 58 4 0 11 -12 15 -27z m-331
-62 c-3 -3 -9 0 -13 8 -7 10 -9 9 -14 -3 -4 -9 -13 -13 -22 -10 -11 5 -14 2
-9 -12 6 -17 5 -17 -9 1 -24 29 -22 48 2 35 28 -15 31 -13 31 18 l0 27 20 -30
c10 -16 17 -31 14 -34z m446 38 c12 -8 10 -9 -7 -4 -24 7 -33 -9 -10 -18 6 -3
3 -6 -8 -7 -20 -1 -20 -1 -1 -15 15 -11 16 -15 5 -15 -29 0 -39 21 -22 46 17
27 22 28 43 13z m78 -51 c29 -29 3 -75 -32 -56 -12 6 -23 12 -24 14 -5 3 31
53 39 54 3 0 10 -5 17 -12z m-618 -51 c0 -6 -9 -2 -20 8 -11 10 -20 23 -20 28
0 6 9 2 20 -8 11 -10 20 -23 20 -28z m-100 -77 c14 -11 20 -20 14 -20 -7 0
-22 9 -35 20 -31 25 -12 26 21 0z m465 -5 c14 -13 25 -36 25 -50 0 -33 -41
-75 -73 -75 -34 0 -66 29 -73 67 -5 26 -1 37 19 57 33 33 71 33 102 1z m340 5
c-18 -19 -17 -20 5 -20 23 0 23 0 4 -21 -18 -20 -18 -20 11 -14 23 5 26 4 15
-4 -18 -13 -50 -14 -50 -3 0 4 6 14 13 21 10 10 8 12 -8 11 -36 -4 -39 0 -15
25 28 29 51 34 25 5z m-822 -67 c-7 -3 -13 -14 -13 -26 0 -20 0 -20 -25 3 -29
27 -19 40 23 32 15 -3 21 -7 15 -9z m651 -50 c3 -10 12 -49 21 -87 22 -98 15
-103 -93 -70 -49 15 -86 32 -89 41 -5 11 13 34 58 74 66 60 94 71 103 42z
m236 3 c0 -2 -13 -9 -30 -15 -16 -5 -30 -6 -30 -1 0 5 8 11 18 13 24 7 42 8
42 3z m-527 -109 c26 -53 33 -60 88 -84 74 -32 74 -49 -1 -84 -48 -23 -59 -33
-85 -85 -17 -32 -37 -59 -45 -59 -8 0 -29 26 -45 59 -26 51 -37 62 -85 85 -31
14 -55 33 -55 41 0 8 26 27 58 43 50 25 62 35 79 75 39 90 51 91 91 9z m550 3
c-2 -2 -7 1 -11 7 -4 6 -18 13 -32 16 -25 4 -25 4 3 6 18 1 27 7 28 19 1 9 4
4 8 -13 4 -16 6 -32 4 -35z m-955 13 c-10 -2 -18 -11 -18 -18 0 -7 8 -16 18
-18 9 -3 -1 -5 -23 -5 -22 0 -32 2 -22 5 20 5 23 29 5 36 -7 3 3 5 22 5 19 0
27 -2 18 -5z m961 -69 c2 -2 -3 -4 -12 -4 -20 0 -23 -26 -4 -33 6 -3 -4 -5
-23 -5 -19 0 -27 2 -17 5 21 5 23 33 2 33 -8 0 -15 4 -15 10 0 8 58 3 69 -6z
m-969 -47 l25 -4 -27 -2 c-16 0 -28 -8 -30 -18 -3 -11 -6 -5 -9 14 -4 23 -2
30 5 24 6 -5 22 -11 36 -14z m39 -71 c-2 -2 -17 -6 -34 -10 -22 -5 -26 -4 -15
4 14 9 59 15 49 6z m886 -64 c-3 -3 -12 3 -21 14 -13 16 -15 17 -10 2 4 -14 0
-18 -17 -17 -12 0 -16 3 -9 6 6 2 12 14 12 26 0 20 0 20 25 -3 14 -13 23 -26
20 -28z m-865 0 c0 -4 -6 -14 -12 -21 -11 -11 -9 -13 10 -8 12 3 22 0 22 -6 0
-14 -30 -47 -43 -47 -6 0 -2 9 8 20 18 19 17 20 -5 20 -23 0 -23 0 -4 21 l19
22 -30 -7 c-22 -5 -26 -4 -15 4 18 12 50 13 50 2z m811 -62 c31 -25 12 -26
-21 0 -14 11 -20 20 -14 20 7 0 22 -9 35 -20z m-681 -90 c0 -4 -10 -16 -23
-28 -18 -17 -26 -19 -35 -10 -30 30 -4 73 34 56 13 -6 24 -14 24 -18z m605
-28 c-7 -7 -45 29 -45 41 0 6 11 0 25 -13 14 -13 23 -26 20 -28z m-55 -38 c0
-9 -7 -10 -29 -1 -17 6 -28 14 -25 19 3 4 11 5 19 1 11 -4 14 0 9 13 -5 18 -5
18 10 0 9 -11 16 -25 16 -32z m-482 23 c8 -9 6 -19 -7 -36 -15 -20 -21 -22
-37 -12 -18 11 -17 11 4 6 23 -7 32 9 10 18 -8 3 -5 6 6 6 15 1 16 4 6 16 -7
8 -8 15 -2 15 5 0 14 -6 20 -13z m432 -52 c0 -21 -6 -16 -31 28 -9 16 -8 17
10 5 12 -7 21 -22 21 -33z m-360 -1 c0 -8 5 -14 10 -14 6 0 10 8 10 17 0 9 2
14 5 11 8 -8 -5 -58 -15 -58 -4 0 -11 12 -15 28 -7 27 -7 27 -16 5 -9 -25 -21
-32 -14 -8 3 8 7 22 10 31 6 18 25 9 25 -12z m275 -42 c-6 -6 -44 36 -45 50 0
3 9 4 20 1 12 -3 21 0 22 8 0 8 3 -1 5 -19 3 -19 2 -37 -2 -40z m-194 7 c-6
-16 -10 -18 -10 -7 -1 22 12 55 16 42 2 -6 -1 -22 -6 -35z m108 24 c18 -33
-25 -73 -45 -41 -4 7 -3 8 5 4 16 -10 41 12 34 30 -3 8 -14 14 -25 14 -17 0
-18 -3 -8 -15 10 -12 10 -15 -4 -15 -16 0 -22 21 -9 33 12 13 42 7 52 -10z"/>
<path d="M6050 10169 c-562 -48 -1091 -216 -1560 -494 -246 -146 -413 -264
-585 -415 -342 -301 -626 -655 -845 -1054 -44 -81 -80 -149 -80 -152 0 -3 -20
-48 -45 -100 -94 -197 -153 -374 -231 -691 -76 -310 -110 -671 -94 -1003 5
-118 16 -269 24 -335 23 -194 85 -476 151 -685 12 -41 31 -100 40 -130 44
-143 193 -457 307 -649 484 -814 1250 -1416 2139 -1680 396 -117 719 -164
1129 -164 277 1 415 11 644 48 488 80 901 233 1334 493 148 90 395 270 523
382 155 135 356 346 491 516 80 101 255 369 329 504 170 312 268 567 354 916
150 614 144 1281 -16 1894 -125 475 -335 915 -624 1305 -251 340 -598 667
-947 894 -528 343 -1091 540 -1703 596 -171 16 -572 18 -735 4z m298 -361
c-26 -20 -144 -90 -588 -345 -91 -52 -257 -150 -370 -218 -272 -163 -287 -170
-317 -156 -13 6 -50 11 -82 11 -81 0 -552 102 -551 119 0 3 60 44 132 90 147
94 392 216 572 286 359 139 804 230 1136 233 l95 1 -27 -21z m388 7 c299 -31
535 -82 792 -169 250 -86 421 -168 707 -339 124 -74 134 -83 109 -91 -63 -19
-515 -93 -542 -89 -33 5 -92 -13 -92 -28 0 -21 -38 -5 -143 59 -62 38 -182
108 -267 156 -85 49 -180 103 -210 121 -30 18 -113 65 -185 105 -171 96 -455
272 -455 282 0 13 135 9 286 -7z m-341 -409 c-6 -58 -9 -67 -30 -72 -29 -7
-49 -30 -62 -68 -5 -16 -16 -33 -24 -37 -8 -4 -57 -31 -109 -60 -201 -111
-362 -190 -378 -185 -31 10 -471 76 -509 77 -82 1 -83 12 -3 59 41 23 104 61
139 83 92 57 231 140 416 247 161 93 342 199 468 274 38 22 71 45 75 50 11 17
25 -294 17 -368z m280 212 c61 -36 146 -84 190 -108 44 -24 114 -64 155 -88
41 -25 147 -86 235 -137 215 -123 336 -198 331 -203 -6 -6 -112 -25 -365 -68
l-213 -36 -253 127 c-234 118 -253 129 -259 157 -3 16 -18 42 -33 56 l-28 27
3 207 3 208 62 -39 c34 -21 112 -67 172 -103z m-332 -454 c35 -29 70 -28 117
6 l28 20 114 -59 c62 -32 162 -84 222 -115 60 -30 103 -57 95 -60 -8 -2 -110
-21 -227 -42 l-212 -37 -25 27 c-30 32 -75 34 -116 5 l-29 -21 -202 36 c-110
20 -203 38 -205 40 -3 2 51 34 119 70 68 36 157 86 198 110 41 24 79 45 84 45
4 1 22 -11 39 -25z m-1748 -37 c99 -26 215 -54 258 -63 67 -14 78 -19 74 -35
-3 -10 -1 -38 5 -63 8 -39 5 -57 -20 -133 -15 -48 -41 -131 -57 -183 -27 -91
-30 -96 -65 -112 -27 -11 -42 -27 -55 -55 -16 -37 -22 -41 -74 -51 -31 -6
-105 -25 -166 -41 -60 -17 -158 -44 -217 -60 l-108 -29 0 32 c0 17 9 144 19
281 11 138 22 293 26 347 l7 96 76 61 c52 42 84 60 97 57 11 -2 101 -24 200
-49z m3893 8 c32 -24 64 -51 70 -58 6 -7 16 -62 21 -123 19 -212 44 -624 39
-629 -3 -3 -121 23 -263 58 l-257 64 -22 44 c-19 36 -28 45 -56 49 -38 6 -26
-20 -122 260 -48 140 -49 145 -33 172 10 18 15 44 13 70 l-3 41 130 23 c72 13
186 34 255 48 69 13 135 25 147 25 11 1 48 -19 81 -44z m-806 -132 c11 -42 54
-76 91 -70 32 4 38 -3 61 -83 9 -30 34 -109 56 -174 44 -131 47 -146 26 -146
-18 0 -816 398 -816 407 0 5 78 21 173 37 94 17 215 38 267 47 123 23 132 21
142 -18z m-2330 -3 c213 -26 350 -49 362 -60 5 -5 -40 -33 -103 -64 -183 -91
-478 -244 -594 -309 -100 -55 -110 -58 -125 -43 -18 18 -21 7 51 241 l43 140
44 7 c54 9 90 45 90 90 0 28 2 30 29 25 16 -4 107 -16 203 -27z m3438 -127
c155 -150 308 -327 420 -487 85 -122 162 -248 155 -254 -5 -5 -198 42 -535
131 -85 22 -156 41 -157 41 -3 2 -23 275 -33 460 -5 94 -13 190 -16 214 -4 26
-2 42 4 42 6 0 79 -66 162 -147z m-4640 -99 c-11 -126 -23 -284 -26 -351 -4
-67 -10 -126 -13 -130 -3 -5 -26 -14 -51 -20 -25 -6 -171 -43 -325 -82 -154
-39 -286 -70 -292 -69 -14 3 117 221 190 316 24 31 60 80 80 107 57 76 113
141 207 239 92 96 239 230 246 223 2 -2 -5 -107 -16 -233z m1918 106 c122 -22
224 -40 226 -40 2 0 7 -15 10 -34 8 -41 33 -65 77 -72 53 -9 88 10 106 56 18
46 12 43 168 70 66 11 168 30 228 41 62 12 120 18 138 14 16 -4 81 -34 142
-67 62 -33 252 -129 423 -213 l311 -154 7 -40 c12 -74 84 -103 153 -60 l33 21
263 -67 c144 -36 265 -69 269 -73 3 -4 15 -128 27 -277 l20 -270 -35 -31 c-25
-23 -34 -40 -34 -63 0 -46 25 -87 60 -99 25 -9 30 -16 30 -44 0 -123 65 -936
76 -947 2 -2 -12 -21 -31 -43 -48 -52 -48 -98 -1 -142 33 -32 33 -33 25 -92
-5 -32 -18 -158 -29 -279 -11 -121 -27 -290 -36 -375 -8 -85 -18 -194 -21
-242 -5 -72 -9 -89 -24 -93 -9 -3 -29 -15 -43 -26 -21 -17 -26 -29 -26 -67 0
-38 5 -52 32 -79 l32 -33 -18 -168 c-34 -324 -48 -427 -58 -433 -10 -6 -338
-61 -445 -75 -47 -6 -55 -4 -83 20 -60 50 -149 22 -167 -51 -8 -37 -13 -40
-163 -118 -85 -44 -270 -141 -410 -215 -140 -73 -267 -139 -281 -147 -28 -14
-55 -10 -304 41 -66 13 -139 27 -163 31 -34 6 -45 12 -53 33 -31 83 -114 108
-170 53 -16 -16 -29 -39 -29 -50 0 -23 -26 -32 -150 -51 -41 -6 -132 -25 -201
-42 l-126 -30 -74 40 c-304 162 -777 402 -793 402 -14 0 -36 55 -36 87 0 7
-14 20 -32 29 -38 20 -92 13 -122 -15 -20 -18 -28 -19 -86 -11 -36 5 -126 16
-200 25 -124 14 -221 30 -261 41 -16 4 -34 130 -63 459 -13 140 -13 140 10
160 53 47 61 126 17 167 -16 14 -35 28 -44 31 -17 6 -37 150 -59 432 -23 285
-31 384 -40 470 -9 88 -9 90 16 116 30 32 46 83 34 113 -5 13 -22 34 -38 47
l-29 24 8 80 c5 44 15 159 23 255 8 96 25 291 38 433 l23 258 32 19 c65 38 69
115 9 168 l-33 29 14 174 c7 96 17 214 21 264 l7 90 65 18 c36 10 97 26 135
37 39 10 137 37 219 60 147 41 149 41 170 22 36 -33 66 -44 102 -38 40 8 74
48 74 87 0 36 8 42 285 185 127 65 309 160 405 210 96 50 186 92 200 93 14 0
125 -17 248 -39z m2981 -719 c420 -106 403 -95 361 -205 -75 -196 -323 -799
-334 -813 -2 -3 -65 84 -193 263 -51 73 -93 139 -93 147 0 9 5 27 11 41 17 36
-5 82 -53 112 -36 23 -38 27 -38 77 0 28 -4 93 -10 142 -16 158 -23 325 -14
325 5 0 168 -40 363 -89z m-4943 32 c-3 -21 -10 -123 -16 -228 -12 -234 -15
-252 -40 -260 -48 -15 -76 -96 -50 -145 8 -14 -2 -32 -48 -91 -32 -41 -85
-112 -117 -159 -90 -131 -116 -165 -123 -163 -3 1 -12 16 -18 35 -14 39 -81
210 -154 393 -28 72 -79 202 -112 289 l-61 160 23 15 c13 9 137 44 274 79 138
35 289 73 336 86 118 32 114 33 106 -11z m5422 -370 c68 -153 122 -297 157
-418 l23 -80 -24 -135 c-32 -179 -124 -638 -133 -662 -11 -30 -96 77 -374 468
l-68 96 70 167 c38 91 112 276 165 411 111 283 114 290 120 290 2 0 31 -62 64
-137z m-6131 -28 c28 -71 77 -195 108 -275 31 -80 83 -209 116 -288 l59 -143
-60 -77 c-33 -42 -99 -131 -147 -197 -48 -66 -110 -151 -138 -190 -29 -38 -58
-81 -64 -94 -7 -13 -16 -19 -20 -15 -17 19 -98 418 -145 710 -15 92 -15 92 14
185 53 176 95 285 155 409 21 41 41 86 47 99 5 13 12 20 17 15 4 -5 30 -67 58
-139z m5521 -514 l138 -195 -63 -155 c-117 -287 -168 -403 -178 -402 -6 0 -13
31 -17 68 -29 302 -66 877 -59 918 3 12 9 4 179 -234z m-4858 202 c0 -16 -5
-71 -10 -123 -11 -104 -21 -212 -50 -580 -11 -135 -20 -256 -20 -270 0 -50
-22 -2 -156 340 -36 91 -71 179 -79 197 -14 32 -13 33 38 100 29 37 76 104
106 148 70 105 154 215 163 215 5 0 8 -12 8 -27z m5690 -300 c0 -5 11 -71 25
-148 49 -270 58 -375 57 -645 0 -171 -6 -298 -17 -385 -16 -133 -43 -296 -48
-302 -5 -4 -17 39 -77 277 -28 113 -57 226 -64 251 -12 44 -12 47 16 78 22 25
28 41 28 77 0 40 -5 51 -37 82 -21 21 -37 39 -36 42 14 56 104 509 127 643 4
20 11 37 16 37 6 0 10 -3 10 -7z m-6641 -272 c11 -58 33 -171 50 -249 l31
-144 -30 -29 -29 -30 -58 15 c-32 8 -69 16 -83 18 -24 3 -25 5 -22 68 6 139
39 388 74 560 l11 55 18 -79 c11 -43 28 -126 38 -185z m6180 -146 c37 -49 100
-133 139 -185 69 -93 70 -95 52 -115 -10 -11 -22 -33 -26 -49 l-7 -28 -71 6
c-39 4 -161 11 -270 16 -110 6 -200 11 -200 13 -1 1 -10 19 -20 40 l-19 37 48
123 c27 67 61 149 76 182 15 33 42 96 59 140 17 44 34 83 37 87 2 5 34 -33 70
-84 36 -51 96 -133 132 -183z m-5550 160 c46 -126 118 -307 157 -392 27 -61
30 -72 17 -77 -14 -6 -594 32 -601 39 -4 4 -3 6 175 250 194 266 207 284 214
277 3 -4 20 -47 38 -97z m-676 -491 c55 -6 57 -8 57 -36 0 -33 16 -67 39 -84
18 -14 19 -7 -59 -289 -29 -104 -57 -207 -62 -228 -6 -21 -12 -36 -14 -35 -3
4 -22 119 -29 178 -16 134 -25 254 -27 373 -3 135 -2 138 17 133 12 -3 47 -8
78 -12z m537 -9 c289 -23 275 -20 277 -57 2 -18 13 -43 27 -56 l24 -25 -20
-46 c-11 -25 -30 -75 -43 -111 -13 -36 -47 -128 -75 -205 -28 -77 -54 -150
-57 -163 -3 -13 -9 -22 -14 -20 -8 3 -123 152 -199 260 -25 34 -72 99 -106
143 -34 45 -73 100 -89 123 l-27 41 20 33 c13 22 18 44 15 66 -5 31 -5 32 33
32 22 0 127 -7 234 -15z m5634 -65 c202 -10 238 -18 252 -55 3 -8 -23 -51 -58
-97 -34 -46 -127 -173 -206 -283 -79 -110 -147 -201 -151 -203 -5 -2 -11 7
-14 20 -4 18 -149 428 -199 561 -9 24 -7 32 12 52 20 21 28 23 93 19 40 -2
162 -9 271 -14z m-414 -71 c0 -11 11 -48 24 -82 14 -34 61 -165 106 -292 94
-263 94 -235 -1 -361 -121 -161 -207 -270 -222 -283 -21 -17 -22 -39 8 263 22
234 46 501 61 694 4 45 11 82 15 82 5 0 9 -9 9 -21z m-5570 -19 c10 -5 83 -98
162 -206 78 -108 176 -241 216 -295 64 -87 71 -101 62 -120 -7 -12 -40 -105
-75 -208 -35 -102 -99 -280 -143 -396 -43 -115 -83 -223 -89 -240 l-10 -30
-24 40 c-14 22 -39 72 -56 110 -17 39 -46 101 -63 139 -33 74 -103 277 -140
409 -34 122 -35 177 -6 287 14 52 44 165 66 250 22 85 44 169 49 185 5 17 12
42 15 58 7 30 9 31 36 17z m6338 -77 c65 -246 114 -441 132 -521 19 -91 19
-92 -1 -169 -57 -221 -124 -404 -227 -614 -37 -77 -69 -139 -72 -139 -8 0
-223 589 -285 780 -15 47 -31 89 -36 95 -18 19 -8 49 39 109 26 33 92 124 147
201 159 226 245 335 265 335 14 0 22 -17 38 -77z m-5598 2 c0 -43 4 -90 55
-644 14 -151 23 -276 21 -278 -4 -5 -25 23 -218 286 -89 122 -91 126 -78 155
7 17 34 94 61 171 95 272 135 369 149 360 6 -3 10 -26 10 -50z m-189 -662 c29
-43 66 -94 83 -114 17 -20 55 -71 85 -113 40 -58 51 -80 42 -89 -6 -6 -11 -27
-11 -46 0 -29 8 -43 48 -80 l49 -46 7 -100 c4 -55 16 -183 27 -284 10 -101 18
-186 16 -188 -3 -2 -122 15 -497 72 -52 8 -106 15 -120 15 -30 0 -42 13 -94
97 l-38 61 17 39 c9 21 21 47 26 58 5 11 20 52 33 90 13 39 59 160 101 270 42
110 95 253 118 318 23 64 45 117 49 117 4 0 31 -35 59 -77z m5269 60 c0 -26
175 -527 283 -811 l35 -94 -30 -51 c-16 -29 -31 -53 -32 -54 -2 -2 -508 -89
-603 -104 -46 -7 -85 -10 -88 -7 -3 3 -1 45 5 94 6 49 17 159 25 244 24 256
21 243 63 265 51 28 72 82 49 129 l-15 33 141 186 c78 102 148 186 155 186 6
1 12 -7 12 -16z m220 -1070 c0 -13 -178 -253 -258 -348 -113 -135 -451 -465
-476 -465 -4 0 -4 10 -1 23 6 25 40 348 57 537 6 69 15 130 19 136 5 5 64 20
131 33 68 13 202 38 298 56 183 34 230 40 230 28z m-5525 -49 c94 -15 219 -34
280 -43 l110 -17 7 -49 c9 -60 47 -438 55 -549 l6 -79 -81 67 c-198 164 -381
366 -544 601 -78 113 -76 107 -36 101 18 -3 110 -18 203 -32z m4811 -106 c-3
-24 -15 -135 -26 -248 -11 -113 -25 -241 -30 -284 -6 -44 -10 -96 -10 -117 0
-30 -6 -43 -32 -64 -36 -31 -4 -31 -358 0 -288 26 -270 22 -270 56 0 32 -16
69 -34 81 -15 10 3 70 74 249 75 188 74 186 109 194 33 7 55 28 70 66 11 29
14 30 241 64 58 9 132 22 165 29 105 23 107 23 101 -26z m-4103 -4 c93 -13
187 -24 208 -24 29 0 41 -5 45 -17 16 -53 39 -85 67 -90 29 -6 54 -35 73 -88
7 -16 30 -76 52 -132 l40 -102 -23 -21 c-12 -11 -28 -39 -34 -62 -12 -37 -10
-45 13 -90 14 -27 26 -51 26 -53 0 -2 -39 -8 -87 -15 -166 -22 -308 -50 -367
-70 l-58 -21 -72 55 -72 55 -22 208 c-12 114 -27 262 -32 328 -6 66 -13 132
-16 147 l-6 28 49 -6 c26 -3 124 -17 216 -30z m1025 -392 c29 -18 96 -53 149
-79 l97 -47 -100 -18 c-54 -10 -151 -29 -214 -42 -280 -59 -281 -59 -291 10
-3 21 -11 49 -18 62 -14 26 -68 62 -92 62 -17 0 -41 48 -95 190 -50 133 -49
131 -30 146 15 11 54 -6 279 -120 144 -73 286 -147 315 -164z m2411 284 c9
-11 0 -44 -43 -153 -29 -76 -66 -170 -81 -209 -24 -63 -31 -72 -68 -90 -28
-13 -44 -27 -47 -44 -8 -34 -54 -37 -156 -11 -84 21 -299 65 -374 76 -83 13
-81 19 31 76 57 30 109 56 114 58 6 2 75 39 155 82 229 123 434 228 446 228 6
1 17 -5 23 -13z m-1566 -372 c37 -31 86 -28 122 6 l23 22 208 -42 c115 -23
210 -43 212 -45 4 -3 -127 -74 -318 -172 l-116 -58 -33 22 c-40 27 -69 29
-108 7 -28 -16 -29 -16 -236 91 -114 60 -206 110 -204 111 2 2 85 19 186 38
101 19 186 37 189 40 13 13 46 4 75 -20z m-523 -84 c0 -5 6 -10 13 -10 7 0 85
-37 172 -81 299 -153 280 -141 282 -172 2 -35 25 -71 58 -93 l25 -16 0 -200
c0 -160 -3 -199 -13 -195 -13 5 -441 260 -777 463 -91 55 -202 122 -247 149
-46 27 -81 50 -80 51 5 5 523 111 550 113 9 1 17 -3 17 -9z m1340 -24 c203
-38 370 -73 377 -79 3 -4 -9 -14 -26 -24 -65 -36 -540 -321 -568 -341 -15 -11
-91 -58 -168 -104 -77 -46 -186 -112 -242 -147 -56 -34 -107 -60 -113 -56 -6
4 -10 81 -10 211 0 164 3 204 13 204 20 0 44 30 59 74 13 37 19 42 263 166
138 70 257 126 265 124 8 -2 76 -14 150 -28z m-2030 -56 c0 -5 -5 -10 -11 -10
-5 0 -7 5 -4 10 3 6 8 10 11 10 2 0 4 -4 4 -10z m105 -70 c22 -15 73 -47 114
-71 104 -62 261 -156 462 -279 95 -58 211 -128 258 -156 47 -28 124 -74 171
-102 47 -28 94 -58 105 -67 19 -14 18 -15 -15 -11 -19 3 -87 8 -150 11 -315
16 -763 113 -1045 227 -151 61 -339 150 -442 210 -96 55 -203 129 -203 139 0
8 127 35 280 59 236 36 374 61 389 70 17 9 18 9 76 -30z m2456 -5 c43 -39 73
-44 119 -20 17 9 40 13 52 10 13 -2 102 -12 198 -20 96 -9 204 -20 238 -25 35
-5 71 -6 80 -4 11 4 9 1 -4 -8 -11 -7 -36 -25 -55 -39 -63 -49 -373 -222 -484
-271 -313 -138 -565 -211 -915 -268 -121 -19 -349 -40 -440 -40 -38 0 -42 2
-30 14 8 8 31 23 50 34 50 29 478 288 585 355 50 31 135 83 190 115 55 33 152
91 215 130 63 39 126 71 139 71 14 1 40 -14 62 -34z"/>
<path d="M5551 8308 c-33 -24 -110 -80 -171 -124 -163 -121 -388 -230 -585
-283 -173 -46 -242 -94 -265 -183 -6 -20 -15 -164 -20 -320 -5 -156 -12 -350
-15 -433 -6 -159 -30 -988 -44 -1540 -12 -431 -8 -457 70 -533 48 -47 93 -56
187 -38 359 72 600 5 823 -230 102 -108 130 -133 177 -156 55 -26 134 -28 182
-3 19 10 103 86 185 170 162 164 215 202 294 212 112 13 197 -38 387 -233 79
-80 137 -131 165 -144 52 -23 138 -26 177 -6 15 8 77 65 137 126 117 120 246
214 338 249 131 48 322 57 494 23 79 -16 110 -18 138 -11 47 13 107 68 130
119 19 43 19 55 -25 1602 -34 1201 -32 1157 -76 1215 -38 50 -65 64 -267 133
-254 88 -463 194 -629 321 -119 91 -135 99 -201 99 -92 0 -92 0 -466 -329 -85
-75 -178 -155 -207 -179 l-53 -43 -65 48 c-97 73 -285 227 -441 362 -77 67
-154 128 -172 136 -17 8 -51 15 -76 15 -37 0 -56 -8 -106 -42z m200 -355 c408
-354 537 -452 622 -473 39 -10 51 -9 93 9 26 12 68 38 92 59 25 20 82 66 127
102 46 36 165 134 265 218 176 149 182 153 203 137 74 -54 282 -187 336 -214
85 -43 231 -100 373 -144 64 -21 119 -41 122 -46 5 -7 9 -127 41 -1166 8 -264
20 -615 25 -780 6 -165 11 -346 13 -403 l2 -102 -45 7 c-25 4 -103 7 -175 7
-199 -1 -372 -44 -521 -132 -98 -57 -128 -81 -227 -180 l-88 -87 -78 83 c-44
45 -94 94 -112 107 -194 142 -265 170 -434 169 -89 0 -121 -5 -166 -23 -93
-36 -176 -96 -301 -219 l-118 -115 -83 80 c-173 167 -328 255 -532 299 -96 21
-285 29 -370 16 -38 -6 -71 -9 -74 -7 -4 5 8 469 29 1060 5 143 14 490 20 770
6 281 15 535 18 565 l7 55 166 55 c207 69 353 140 538 263 105 69 149 93 160
87 9 -4 41 -30 72 -57z"/>
<path d="M5440 7690 c-98 -21 -132 -33 -171 -61 -39 -27 -40 -79 -3 -116 28
-28 25 -28 234 -4 158 19 344 -9 480 -71 114 -52 190 -37 190 38 0 52 -17 78
-73 111 -193 114 -432 152 -657 103z"/>
<path d="M6980 7691 c-150 -33 -268 -88 -324 -150 -45 -50 -6 -131 64 -131 19
0 74 15 120 34 137 56 228 70 404 62 83 -3 177 -9 208 -12 53 -6 58 -5 83 22
20 21 25 36 23 63 -3 31 -9 39 -47 60 -116 64 -366 89 -531 52z"/>
<path d="M6365 7299 c-17 -5 -44 -22 -60 -39 l-30 -31 0 -843 c0 -707 2 -847
14 -869 8 -15 34 -36 58 -48 54 -26 101 -20 146 21 l32 28 0 849 c0 794 -1
851 -18 876 -32 49 -88 71 -142 56z"/>
<path d="M5440 5675 c-90 -17 -157 -40 -182 -62 -27 -24 -24 -84 5 -111 22
-21 33 -22 248 -25 242 -4 291 -12 439 -73 93 -38 141 -38 182 3 24 24 32 41
32 67 0 44 -23 70 -97 107 -185 94 -427 130 -627 94z"/>
<path d="M7045 5680 c-142 -23 -323 -96 -369 -151 -33 -39 -33 -79 0 -118 39
-46 77 -49 170 -11 169 69 189 72 439 77 127 3 238 9 247 14 9 5 21 24 27 42
24 71 -14 103 -150 132 -91 20 -283 27 -364 15z"/>
<path d="M1626 8357 c3 -10 9 -15 12 -12 3 3 0 11 -7 18 -10 9 -11 8 -5 -6z"/>
<path d="M1391 7554 c0 -11 3 -14 6 -6 3 7 2 16 -1 19 -3 4 -6 -2 -5 -13z"/>
<path d="M1311 7224 c0 -11 3 -14 6 -6 3 7 2 16 -1 19 -3 4 -6 -2 -5 -13z"/>
<path d="M940 1540 c0 -5 5 -10 11 -10 5 0 7 5 4 10 -3 6 -8 10 -11 10 -2 0
-4 -4 -4 -10z"/>
<path d="M1376 1444 c-9 -23 -8 -24 14 -24 13 0 20 7 20 20 0 24 -25 27 -34 4z"/>
<path d="M750 719 c0 -14 5 -19 17 -17 26 5 29 38 4 38 -15 0 -21 -6 -21 -21z"/>
<path d="M1205 620 c3 -5 8 -10 11 -10 2 0 4 5 4 10 0 6 -5 10 -11 10 -5 0 -7
-4 -4 -10z"/>
</g>
</svg>
